{
  "accessors": [
    {
      "bufferView": 2,
      "componentType": 5126,
      "count": 963,
      "max": [
        1.474326491355896,
        2.818939208984375,
        1.4088412523269653
      ],
      "min": [
        -1.7087355852127075,
        -1.9794880151748657,
        -1.3409461975097656
      ],
      "type": "VEC3"
    },
    {
      "bufferView": 2,
      "byteOffset": 11556,
      "componentType": 5126,
      "count": 963,
      "max": [
        1,
        1,
        0.9999995231628418
      ],
      "min": [
        -1,
        -1,
        -0.99999946355819702
      ],
      "type": "VEC3"
    },
    {
      "bufferView": 1,
      "componentType": 5126,
      "count": 963,
      "max": [
        0.96184718608856201,
        0.97070455551147461
      ],
      "min": [
        0.10320000350475311,
        0.03786361962556839
      ],
      "type": "VEC2"
    },
    {
      "bufferView": 0,
      "componentType": 5125,
      "count": 2160,
      "max": [
        962
      ],
      "min": [
        0
      ],
      "type": "SCALAR"
    }
  ],
  "asset": {
    "extras": {
      "author": "Hatty (https://sketchfab.com/Hatty53)",
      "license": "CC-BY-4.0 (http://creativecommons.org/licenses/by/4.0/)",
      "source": "https://sketchfab.com/3d-models/3december-robot-b7427243a7ca4e489fb46937bcf7ccd3",
      "title": "3December - Robot"
    },
    "generator": "Sketchfab-9.90.0",
    "version": "2.0"
  },
  "bufferViews": [
    {
      "buffer": 0,
      "byteLength": 8640,
      "byteOffset": 0,
      "name": "floatBufferViews",
      "target": 34963
    },
    {
      "buffer": 0,
      "byteLength": 7704,
      "byteOffset": 8640,
      "byteStride": 8,
      "name": "floatBufferViews",
      "target": 34962
    },
    {
      "buffer": 0,
      "byteLength": 23112,
      "byteOffset": 16344,
      "byteStride": 12,
      "name": "floatBufferViews",
      "target": 34962
    }
  ],
  "buffers": [
    {
      "byteLength": 39456,
      "uri": "scene.bin"
    }
  ],
  "images": [
    {
      "uri": "textures/Robo_baseColor.png"
    }
  ],
  "materials": [
    {
      "doubleSided": true,
      "name": "Robo",
      "pbrMetallicRoughness": {
        "baseColorFactor": [
          1,
          1,
          1,
          1
        ],
        "baseColorTexture": {
          "index": 0,
          "texCoord": 0
        },
        "metallicFactor": 0,
        "roughnessFactor": 0.63613395839704023
      }
    }
  ],
  "meshes": [
    {
      "primitives": [
        {
          "attributes": {
            "NORMAL": 1,
            "POSITION": 0,
            "TEXCOORD_0": 2
          },
          "indices": 3,
          "material": 0,
          "mode": 4
        }
      ]
    }
  ],
  "nodes": [
    {
      "children": [
        1
      ],
      "name": "RootNode (gltf orientation matrix)",
      "rotation": [
        -0.70710678118654746,
        -0,
        -0,
        0.70710678118654757
      ]
    },
    {
      "children": [
        2
      ],
      "name": "RootNode (model correction matrix)"
    },
    {
      "children": [
        3
      ],
      "name": "root"
    },
    {
      "children": [
        4
      ],
      "matrix": [
        1,
        0,
        0,
        0,
        0,
        2.2204460492503131e-16,
        1,
        0,
        0,
        -1,
        2.2204460492503131e-16,
        0,
        0,
        0,
        0,
        1
      ],
      "name": "GLTF_SceneRootNode"
    },
    {
      "children": [
        5
      ],
      "matrix": [
        1,
        0,
        0,
        0,
        0,
        1,
        0,
        0,
        0,
        0,
        1,
        0,
        0,
        0.76895952224731445,
        0,
        1
      ],
      "name": "Cube_0"
    },
    {
      "mesh": 0,
      "name": ""
    }
  ],
  "samplers": [
    {
      "magFilter": 9728,
      "minFilter": 9986,
      "wrapS": 10497,
      "wrapT": 10497
    }
  ],
  "scene": 0,
  "scenes": [
    {
      "name": "OSG_Scene",
      "nodes": [
        0
      ]
    }
  ],
  "textures": [
    {
      "sampler": 0,
      "source": 0
    }
  ]
}

