{
  "accessors": [
    {
      "bufferView": 2,
      "componentType": 5126,
      "count": 8209,
      "max": [
        0.28900998830795288,
        1.4143520593643188,
        10.502649307250977
      ],
      "min": [
        -2.7023789882659912,
        -1.57703697681427,
        0.011598000302910805
      ],
      "type": "VEC3"
    },
    {
      "bufferView": 2,
      "byteOffset": 98508,
      "componentType": 5126,
      "count": 8209,
      "max": [
        0.99997681379318237,
        0.9999769926071167,
        1
      ],
      "min": [
        -0.99997693300247192,
        -0.99997693300247192,
        -1
      ],
      "type": "VEC3"
    },
    {
      "bufferView": 3,
      "componentType": 5126,
      "count": 8209,
      "max": [
        1,
        0.99998146295547485,
        0.99996674060821533,
        1
      ],
      "min": [
        -0.9999815821647644,
        -0.99998146295547485,
        -0.99996674060821533,
        -1
      ],
      "type": "VEC4"
    },
    {
      "bufferView": 1,
      "componentType": 5126,
      "count": 8209,
      "max": [
        0.89212197065353394,
        0.98580199480056763
      ],
      "min": [
        0.015196000225841999,
        0.017419999465346336
      ],
      "type": "VEC2"
    },
    {
      "bufferView": 0,
      "componentType": 5125,
      "count": 46368,
      "max": [
        8208
      ],
      "min": [
        0
      ],
      "type": "SCALAR"
    },
    {
      "bufferView": 2,
      "byteOffset": 197016,
      "componentType": 5126,
      "count": 8786,
      "max": [
        0.28005000948905945,
        1.405392050743103,
        10.522909164428711
      ],
      "min": [
        -2.6934208869934082,
        -1.5680789947509766,
        0.40057000517845154
      ],
      "type": "VEC3"
    },
    {
      "bufferView": 2,
      "byteOffset": 302448,
      "componentType": 5126,
      "count": 8786,
      "max": [
        0.99999475479125977,
        0.99999463558197021,
        0.99999642372131348
      ],
      "min": [
        -0.99999475479125977,
        -0.99999451637268066,
        -0.99999582767486572
      ],
      "type": "VEC3"
    },
    {
      "bufferView": 3,
      "byteOffset": 131344,
      "componentType": 5126,
      "count": 8786,
      "max": [
        0.76625800132751465,
        0.54966384172439575,
        1,
        1
      ],
      "min": [
        -1,
        -0.99597489833831787,
        -0.99998986721038818,
        1
      ],
      "type": "VEC4"
    },
    {
      "bufferView": 1,
      "byteOffset": 65672,
      "componentType": 5126,
      "count": 8786,
      "max": [
        0.98010599613189697,
        0.96317100524902344
      ],
      "min": [
        0.030259000137448311,
        0.048156999051570892
      ],
      "type": "VEC2"
    },
    {
      "bufferView": 0,
      "byteOffset": 185472,
      "componentType": 5125,
      "count": 50574,
      "max": [
        8785
      ],
      "min": [
        0
      ],
      "type": "SCALAR"
    },
    {
      "bufferView": 2,
      "byteOffset": 407880,
      "componentType": 5126,
      "count": 5329,
      "max": [
        0.26713699102401733,
        1.3909150362014771,
        10.747455596923828
      ],
      "min": [
        -2.6778268814086914,
        -1.5536700487136841,
        8.2222023010253906
      ],
      "type": "VEC3"
    },
    {
      "bufferView": 2,
      "byteOffset": 471828,
      "componentType": 5126,
      "count": 5329,
      "max": [
        0.99983417987823486,
        0.99983370304107666,
        1
      ],
      "min": [
        -0.99983406066894531,
        -0.99983364343643188,
        -1
      ],
      "type": "VEC3"
    },
    {
      "bufferView": 3,
      "byteOffset": 271920,
      "componentType": 5126,
      "count": 5329,
      "max": [
        0.9999956488609314,
        0.99998164176940918,
        0.9998047947883606,
        1
      ],
      "min": [
        -0.9999966025352478,
        -0.99991047382354736,
        -0.99998271465301514,
        1
      ],
      "type": "VEC4"
    },
    {
      "bufferView": 1,
      "byteOffset": 135960,
      "componentType": 5126,
      "count": 5329,
      "max": [
        0.99145901203155518,
        0.45787900686264038
      ],
      "min": [
        0.77263998985290527,
        0.096565999090671539
      ],
      "type": "VEC2"
    },
    {
      "bufferView": 0,
      "byteOffset": 387768,
      "componentType": 5125,
      "count": 26778,
      "max": [
        5328
      ],
      "min": [
        0
      ],
      "type": "SCALAR"
    }
  ],
  "asset": {
    "extras": {
      "author": "completehemp (https://sketchfab.com/completehemp)",
      "license": "CC-BY-4.0 (http://creativecommons.org/licenses/by/4.0/)",
      "source": "https://sketchfab.com/3d-models/faceeye-moisturizer-cream-c4df812d001345aba7f063d33b108890",
      "title": "Face&Eye Moisturizer Cream"
    },
    "generator": "Sketchfab-9.11.0",
    "version": "2.0"
  },
  "bufferViews": [
    {
      "buffer": 0,
      "byteLength": 494880,
      "byteOffset": 0,
      "name": "floatBufferViews",
      "target": 34963
    },
    {
      "buffer": 0,
      "byteLength": 178592,
      "byteOffset": 494880,
      "byteStride": 8,
      "name": "floatBufferViews",
      "target": 34962
    },
    {
      "buffer": 0,
      "byteLength": 535776,
      "byteOffset": 673472,
      "byteStride": 12,
      "name": "floatBufferViews",
      "target": 34962
    },
    {
      "buffer": 0,
      "byteLength": 357184,
      "byteOffset": 1209248,
      "byteStride": 16,
      "name": "floatBufferViews",
      "target": 34962
    }
  ],
  "buffers": [
    {
      "byteLength": 1566432,
      "uri": "scene.bin"
    }
  ],
  "images": [
    {
      "uri": "textures/capac_baseColor.png"
    },
    {
      "uri": "textures/capac_metallicRoughness.png"
    },
    {
      "uri": "textures/capac_normal.png"
    },
    {
      "uri": "textures/produs_baseColor.jpeg"
    },
    {
      "uri": "textures/produs_metallicRoughness.png"
    },
    {
      "uri": "textures/produs_normal.png"
    }
  ],
  "materials": [
    {
      "alphaMode": "BLEND",
      "doubleSided": true,
      "name": "capac",
      "normalTexture": {
        "index": 2,
        "scale": 1,
        "texCoord": 0
      },
      "occlusionTexture": {
        "index": 1,
        "strength": 1,
        "texCoord": 0
      },
      "pbrMetallicRoughness": {
        "baseColorFactor": [
          1,
          1,
          1,
          1
        ],
        "baseColorTexture": {
          "index": 0,
          "texCoord": 0
        },
        "metallicFactor": 1,
        "metallicRoughnessTexture": {
          "index": 1,
          "texCoord": 0
        },
        "roughnessFactor": 1
      }
    },
    {
      "doubleSided": true,
      "name": "produs",
      "normalTexture": {
        "index": 5,
        "scale": 1,
        "texCoord": 0
      },
      "occlusionTexture": {
        "index": 4,
        "strength": 1,
        "texCoord": 0
      },
      "pbrMetallicRoughness": {
        "baseColorFactor": [
          1,
          1,
          1,
          1
        ],
        "baseColorTexture": {
          "index": 3,
          "texCoord": 0
        },
        "metallicFactor": 1,
        "metallicRoughnessTexture": {
          "index": 4,
          "texCoord": 0
        },
        "roughnessFactor": 1
      }
    }
  ],
  "meshes": [
    {
      "primitives": [
        {
          "attributes": {
            "NORMAL": 1,
            "POSITION": 0,
            "TANGENT": 2,
            "TEXCOORD_0": 3
          },
          "indices": 4,
          "material": 1,
          "mode": 4
        }
      ]
    },
    {
      "primitives": [
        {
          "attributes": {
            "NORMAL": 6,
            "POSITION": 5,
            "TANGENT": 7,
            "TEXCOORD_0": 8
          },
          "indices": 9,
          "material": 1,
          "mode": 4
        }
      ]
    },
    {
      "primitives": [
        {
          "attributes": {
            "NORMAL": 11,
            "POSITION": 10,
            "TANGENT": 12,
            "TEXCOORD_0": 13
          },
          "indices": 14,
          "material": 0,
          "mode": 4
        }
      ]
    }
  ],
  "nodes": [
    {
      "children": [
        1
      ],
      "name": "RootNode (gltf orientation matrix)",
      "rotation": [
        -0.70710678118654746,
        -0,
        -0,
        0.70710678118654757
      ]
    },
    {
      "children": [
        2
      ],
      "name": "RootNode (model correction matrix)"
    },
    {
      "children": [
        3,
        4,
        5
      ],
      "name": "FaceEyeMoisturizerWhite.obj.cleaner.materialmerger.gles"
    },
    {
      "mesh": 0,
      "name": ""
    },
    {
      "mesh": 1,
      "name": ""
    },
    {
      "mesh": 2,
      "name": ""
    }
  ],
  "samplers": [
    {
      "magFilter": 9729,
      "minFilter": 9987,
      "wrapS": 10497,
      "wrapT": 10497
    }
  ],
  "scene": 0,
  "scenes": [
    {
      "name": "OSG_Scene",
      "nodes": [
        0
      ]
    }
  ],
  "textures": [
    {
      "sampler": 0,
      "source": 0
    },
    {
      "sampler": 0,
      "source": 1
    },
    {
      "sampler": 0,
      "source": 2
    },
    {
      "sampler": 0,
      "source": 3
    },
    {
      "sampler": 0,
      "source": 4
    },
    {
      "sampler": 0,
      "source": 5
    }
  ]
}

