{
  "accessors": [
    {
      "bufferView": 2,
      "componentType": 5126,
      "count": 1641,
      "max": [
        0.99923580884933472,
        3.8046948909759521,
        0.27030232548713684
      ],
      "min": [
        -0.99836945533752441,
        -0.54450416564941406,
        -0.55009746551513672
      ],
      "type": "VEC3"
    },
    {
      "bufferView": 2,
      "byteOffset": 19692,
      "componentType": 5126,
      "count": 1641,
      "max": [
        0.99967837333679199,
        0.99624693393707275,
        0.99993908405303955
      ],
      "min": [
        -0.99997150897979736,
        -0.99998128414154053,
        -0.99993836879730225
      ],
      "type": "VEC3"
    },
    {
      "bufferView": 3,
      "componentType": 5126,
      "count": 1641,
      "max": [
        0.94402068853378296,
        0.99999618530273438,
        0.99985259771347046,
        1
      ],
      "min": [
        -0.80560094118118286,
        -0.39778041839599609,
        -0.99974030256271362,
        1
      ],
      "type": "VEC4"
    },
    {
      "bufferView": 1,
      "componentType": 5126,
      "count": 1641,
      "max": [
        0.95236998796463013,
        0.97198504209518433
      ],
      "min": [
        0.043800052255392075,
        0.035895947366952896
      ],
      "type": "VEC2"
    },
    {
      "bufferView": 0,
      "componentType": 5125,
      "count": 9138,
      "max": [
        1640
      ],
      "min": [
        0
      ],
      "type": "SCALAR"
    }
  ],
  "asset": {
    "extras": {
      "author": "neoraptor (https://sketchfab.com/neoraptor)",
      "license": "CC-BY-4.0 (http://creativecommons.org/licenses/by/4.0/)",
      "source": "https://sketchfab.com/models/1f54a72db6744f83aea120c84e2cc2bf",
      "title": "Kurumi Body Pillow"
    },
    "generator": "Sketchfab-3.29.3",
    "version": "2.0"
  },
  "bufferViews": [
    {
      "buffer": 0,
      "byteLength": 36552,
      "byteOffset": 0,
      "name": "floatBufferViews",
      "target": 34963
    },
    {
      "buffer": 0,
      "byteLength": 13128,
      "byteOffset": 36552,
      "byteStride": 8,
      "name": "floatBufferViews",
      "target": 34962
    },
    {
      "buffer": 0,
      "byteLength": 39384,
      "byteOffset": 49680,
      "byteStride": 12,
      "name": "floatBufferViews",
      "target": 34962
    },
    {
      "buffer": 0,
      "byteLength": 26256,
      "byteOffset": 89064,
      "byteStride": 16,
      "name": "floatBufferViews",
      "target": 34962
    }
  ],
  "buffers": [
    {
      "byteLength": 115320,
      "uri": "scene.bin"
    }
  ],
  "images": [
    {
      "uri": "textures/Material_normal.png"
    },
    {
      "uri": "textures/Material_baseColor.png"
    }
  ],
  "materials": [
    {
      "doubleSided": true,
      "name": "Material",
      "normalTexture": {
        "index": 0,
        "scale": 1,
        "texCoord": 0
      },
      "pbrMetallicRoughness": {
        "baseColorFactor": [
          1,
          1,
          1,
          1
        ],
        "baseColorTexture": {
          "index": 1,
          "texCoord": 0
        },
        "metallicFactor": 0,
        "roughnessFactor": 0.80000000000000004
      }
    }
  ],
  "meshes": [
    {
      "primitives": [
        {
          "attributes": {
            "NORMAL": 1,
            "POSITION": 0,
            "TANGENT": 2,
            "TEXCOORD_0": 3
          },
          "indices": 4,
          "material": 0,
          "mode": 4
        }
      ]
    }
  ],
  "nodes": [
    {
      "children": [
        1
      ],
      "name": "RootNode (gltf orientation matrix)",
      "rotation": [
        -0.70710678118654746,
        -0,
        -0,
        0.70710678118654757
      ]
    },
    {
      "children": [
        2
      ],
      "name": "RootNode (model correction matrix)"
    },
    {
      "children": [
        3
      ],
      "matrix": [
        1,
        0,
        0,
        0,
        0,
        0,
        1,
        0,
        0,
        -1,
        0,
        0,
        0,
        0,
        0,
        1
      ],
      "name": "af3f05054d444299b25dbe6ae8d3a80d.fbx"
    },
    {
      "children": [
        4
      ],
      "name": "RootNode"
    },
    {
      "children": [
        5
      ],
      "matrix": [
        0.98961925629965974,
        -2.0320824356147057e-15,
        -0.14371404788992753,
        0,
        2.3413995213848005e-08,
        0.99999999999998668,
        1.612294611324047e-07,
        0,
        0.14371404788992564,
        -1.6292069944890274e-07,
        0.98961925629964664,
        0,
        0,
        0,
        0,
        1
      ],
      "name": "LP"
    },
    {
      "mesh": 0,
      "name": ""
    }
  ],
  "samplers": [
    {
      "magFilter": 9729,
      "minFilter": 9987,
      "wrapS": 10497,
      "wrapT": 10497
    }
  ],
  "scene": 0,
  "scenes": [
    {
      "name": "OSG_Scene",
      "nodes": [
        0
      ]
    }
  ],
  "textures": [
    {
      "sampler": 0,
      "source": 0
    },
    {
      "sampler": 0,
      "source": 1
    }
  ]
}

