{
  "accessors": [
    {
      "bufferView": 2,
      "componentType": 5126,
      "count": 657,
      "max": [
        1.507418155670166,
        2.5952935218811035,
        1.5074182748794556
      ],
      "min": [
        -1.507418155670166,
        -0.34662163257598877,
        -1.5074179172515869
      ],
      "type": "VEC3"
    },
    {
      "bufferView": 2,
      "byteOffset": 7884,
      "componentType": 5126,
      "count": 657,
      "max": [
        1,
        1,
        1
      ],
      "min": [
        -1,
        -1,
        -1
      ],
      "type": "VEC3"
    },
    {
      "bufferView": 3,
      "componentType": 5126,
      "count": 657,
      "max": [
        0.99999541044235229,
        1,
        0.92387861013412476,
        1
      ],
      "min": [
        -0.9999997615814209,
        -0.94858604669570923,
        -0.99999994039535522,
        -1
      ],
      "type": "VEC4"
    },
    {
      "bufferView": 1,
      "componentType": 5126,
      "count": 657,
      "max": [
        1,
        1
      ],
      "min": [
        0,
        0
      ],
      "type": "VEC2"
    },
    {
      "bufferView": 0,
      "componentType": 5125,
      "count": 2292,
      "max": [
        656
      ],
      "min": [
        0
      ],
      "type": "SCALAR"
    },
    {
      "bufferView": 2,
      "byteOffset": 15768,
      "componentType": 5126,
      "count": 4883,
      "max": [
        1.8312016725540161,
        1.3447847366333008,
        1.9434366226196289
      ],
      "min": [
        -1.7322380542755127,
        -3.2343871593475342,
        -1.3240518569946289
      ],
      "type": "VEC3"
    },
    {
      "bufferView": 2,
      "byteOffset": 74364,
      "componentType": 5126,
      "count": 4883,
      "max": [
        0.99961334466934204,
        1,
        0.99952083826065063
      ],
      "min": [
        -0.99911004304885864,
        -0.9994581937789917,
        -0.9999537467956543
      ],
      "type": "VEC3"
    },
    {
      "bufferView": 3,
      "byteOffset": 10512,
      "componentType": 5126,
      "count": 4883,
      "max": [
        0.99992483854293823,
        0.99863612651824951,
        0.99989622831344604,
        1
      ],
      "min": [
        -1,
        -0.99859696626663208,
        -0.99954086542129517,
        -1
      ],
      "type": "VEC4"
    },
    {
      "bufferView": 1,
      "byteOffset": 5256,
      "componentType": 5126,
      "count": 4883,
      "max": [
        0.99992477893829346,
        0.99987232685089111
      ],
      "min": [
        0.00011802679364336655,
        0.00014910331810824573
      ],
      "type": "VEC2"
    },
    {
      "bufferView": 0,
      "byteOffset": 9168,
      "componentType": 5125,
      "count": 11679,
      "max": [
        4882
      ],
      "min": [
        0
      ],
      "type": "SCALAR"
    }
  ],
  "asset": {
    "extras": {
      "author": "Ligul3D (https://sketchfab.com/Ligul)",
      "license": "CC-BY-4.0 (http://creativecommons.org/licenses/by/4.0/)",
      "source": "https://sketchfab.com/3d-models/lowpolyplantchallenge-carnivorous-flower-5cb258f984a1449a835875ae278e26e5",
      "title": "#LowPolyPlantChallenge | Carnivorous flower"
    },
    "generator": "Sketchfab-8.46.0",
    "version": "2.0"
  },
  "bufferViews": [
    {
      "buffer": 0,
      "byteLength": 55884,
      "byteOffset": 0,
      "name": "floatBufferViews",
      "target": 34963
    },
    {
      "buffer": 0,
      "byteLength": 44320,
      "byteOffset": 55884,
      "byteStride": 8,
      "name": "floatBufferViews",
      "target": 34962
    },
    {
      "buffer": 0,
      "byteLength": 132960,
      "byteOffset": 100204,
      "byteStride": 12,
      "name": "floatBufferViews",
      "target": 34962
    },
    {
      "buffer": 0,
      "byteLength": 88640,
      "byteOffset": 233164,
      "byteStride": 16,
      "name": "floatBufferViews",
      "target": 34962
    }
  ],
  "buffers": [
    {
      "byteLength": 321804,
      "uri": "scene.bin"
    }
  ],
  "images": [
    {
      "uri": "textures/material_baseColor.png"
    },
    {
      "uri": "textures/material_metallicRoughness.png"
    },
    {
      "uri": "textures/material_normal.png"
    },
    {
      "uri": "textures/Plant_baseColor.png"
    },
    {
      "uri": "textures/Plant_normal.png"
    }
  ],
  "materials": [
    {
      "doubleSided": true,
      "emissiveFactor": [
        0,
        0,
        0
      ],
      "name": "material",
      "normalTexture": {
        "index": 2,
        "scale": 1,
        "texCoord": 0
      },
      "pbrMetallicRoughness": {
        "baseColorFactor": [
          1,
          1,
          1,
          1
        ],
        "baseColorTexture": {
          "index": 0,
          "texCoord": 0
        },
        "metallicFactor": 0,
        "metallicRoughnessTexture": {
          "index": 1,
          "texCoord": 0
        },
        "roughnessFactor": 1
      }
    },
    {
      "doubleSided": true,
      "emissiveFactor": [
        0,
        0,
        0
      ],
      "name": "Plant",
      "normalTexture": {
        "index": 4,
        "scale": 1,
        "texCoord": 0
      },
      "pbrMetallicRoughness": {
        "baseColorFactor": [
          1,
          1,
          1,
          1
        ],
        "baseColorTexture": {
          "index": 3,
          "texCoord": 0
        },
        "metallicFactor": 0,
        "metallicRoughnessTexture": {
          "index": 1,
          "texCoord": 0
        },
        "roughnessFactor": 1
      }
    }
  ],
  "meshes": [
    {
      "name": "pot_pot_0",
      "primitives": [
        {
          "attributes": {
            "NORMAL": 1,
            "POSITION": 0,
            "TANGENT": 2,
            "TEXCOORD_0": 3
          },
          "indices": 4,
          "material": 0,
          "mode": 4
        }
      ]
    },
    {
      "name": "Plant_Plant_0",
      "primitives": [
        {
          "attributes": {
            "NORMAL": 6,
            "POSITION": 5,
            "TANGENT": 7,
            "TEXCOORD_0": 8
          },
          "indices": 9,
          "material": 1,
          "mode": 4
        }
      ]
    }
  ],
  "nodes": [
    {
      "children": [
        1
      ],
      "name": "RootNode (gltf orientation matrix)",
      "rotation": [
        -0.70710678118654746,
        -0,
        -0,
        0.70710678118654757
      ]
    },
    {
      "children": [
        2
      ],
      "name": "RootNode (model correction matrix)"
    },
    {
      "children": [
        3
      ],
      "matrix": [
        1,
        0,
        0,
        0,
        0,
        0,
        1,
        0,
        0,
        -1,
        0,
        0,
        0,
        0,
        0,
        1
      ],
      "name": "plant_tr.fbx"
    },
    {
      "children": [
        4,
        6
      ],
      "name": "RootNode"
    },
    {
      "children": [
        5
      ],
      "name": "pot"
    },
    {
      "mesh": 0,
      "name": "pot_pot_0"
    },
    {
      "children": [
        7
      ],
      "matrix": [
        1.4369784593582153,
        0,
        0,
        0,
        0,
        1.4369784593582153,
        0,
        0,
        0,
        0,
        1.4369784593582153,
        0,
        0,
        4.8444623947143555,
        -0.59563153982162476,
        1
      ],
      "name": "Plant"
    },
    {
      "mesh": 1,
      "name": "Plant_Plant_0"
    }
  ],
  "samplers": [
    {
      "magFilter": 9729,
      "minFilter": 9987,
      "wrapS": 10497,
      "wrapT": 10497
    }
  ],
  "scene": 0,
  "scenes": [
    {
      "name": "OSG_Scene",
      "nodes": [
        0
      ]
    }
  ],
  "textures": [
    {
      "sampler": 0,
      "source": 0
    },
    {
      "sampler": 0,
      "source": 1
    },
    {
      "sampler": 0,
      "source": 2
    },
    {
      "sampler": 0,
      "source": 3
    },
    {
      "sampler": 0,
      "source": 4
    }
  ]
}

