{
  "accessors": [
    {
      "bufferView": 3,
      "componentType": 5126,
      "count": 5444,
      "max": [
        228.81709289550781,
        950.685302734375,
        234.92237854003906
      ],
      "min": [
        -228.81707763671875,
        -950.685302734375,
        -234.92237854003906
      ],
      "type": "VEC3"
    },
    {
      "bufferView": 3,
      "byteOffset": 65328,
      "componentType": 5126,
      "count": 5444,
      "max": [
        1,
        1,
        1
      ],
      "min": [
        -1,
        -1,
        -1
      ],
      "type": "VEC3"
    },
    {
      "bufferView": 4,
      "componentType": 5126,
      "count": 5444,
      "max": [
        1,
        0.99614626169204712,
        0.9999995231628418,
        1
      ],
      "min": [
        -0.99963879585266113,
        -0.9955979585647583,
        -1,
        -1
      ],
      "type": "VEC4"
    },
    {
      "bufferView": 4,
      "byteOffset": 87104,
      "componentType": 5126,
      "count": 5444,
      "max": [
        1,
        1,
        1,
        1
      ],
      "min": [
        1,
        1,
        1,
        1
      ],
      "type": "VEC4"
    },
    {
      "bufferView": 2,
      "componentType": 5126,
      "count": 5444,
      "max": [
        0.99918413162231445,
        0.99936473369598389
      ],
      "min": [
        0.00081584689905866981,
        0.00063524732831865549
      ],
      "type": "VEC2"
    },
    {
      "bufferView": 1,
      "componentType": 5125,
      "count": 14808,
      "max": [
        5443
      ],
      "min": [
        0
      ],
      "type": "SCALAR"
    },
    {
      "bufferView": 5,
      "componentType": 5126,
      "count": 9,
      "max": [
        1,
        0,
        0,
        0,
        0,
        1,
        0,
        0,
        0,
        0,
        1,
        0,
        1.4369301795959473,
        5.6102356910705566,
        0.12412252277135849,
        1
      ],
      "min": [
        0.0099999997764825821,
        0,
        0,
        0,
        0,
        0.0099999997764825821,
        0,
        0,
        0,
        0,
        0.0099999997764825821,
        0,
        -0.57336580753326416,
        -5.7985167503356934,
        -0.23669308423995972,
        1
      ],
      "type": "MAT4"
    },
    {
      "bufferView": 0,
      "componentType": 5123,
      "count": 5444,
      "max": [
        7,
        1,
        1,
        1
      ],
      "min": [
        1,
        1,
        1,
        1
      ],
      "type": "VEC4"
    },
    {
      "bufferView": 4,
      "byteOffset": 174208,
      "componentType": 5126,
      "count": 5444,
      "max": [
        1,
        0,
        0,
        0
      ],
      "min": [
        1,
        0,
        0,
        0
      ],
      "type": "VEC4"
    },
    {
      "bufferView": 6,
      "componentType": 5126,
      "count": 909,
      "max": [
        21.666666030883789
      ],
      "min": [
        0
      ],
      "type": "SCALAR"
    },
    {
      "bufferView": 7,
      "componentType": 5126,
      "count": 909,
      "max": [
        4.3526625633239746,
        5.5064921379089355,
        6.2742514610290527
      ],
      "min": [
        0.43178200721740723,
        -0.1804078072309494,
        -6.204376220703125
      ],
      "type": "VEC3"
    },
    {
      "bufferView": 6,
      "byteOffset": 3636,
      "componentType": 5126,
      "count": 909,
      "max": [
        21.666666030883789
      ],
      "min": [
        0
      ],
      "type": "SCALAR"
    },
    {
      "bufferView": 8,
      "componentType": 5126,
      "count": 909,
      "max": [
        0.9999992847442627,
        0,
        0,
        0.70710670948028564
      ],
      "min": [
        0.7071068286895752,
        0,
        0,
        0.0011996206594631076
      ],
      "type": "VEC4"
    },
    {
      "bufferView": 6,
      "byteOffset": 7272,
      "componentType": 5126,
      "count": 643,
      "max": [
        21.666666030883789
      ],
      "min": [
        0
      ],
      "type": "SCALAR"
    },
    {
      "bufferView": 7,
      "byteOffset": 10908,
      "componentType": 5126,
      "count": 643,
      "max": [
        4.7090988159179688,
        4.3931851387023926,
        5.6142024993896484
      ],
      "min": [
        0.20060473680496216,
        -0.1689843088388443,
        -6.3043670654296875
      ],
      "type": "VEC3"
    },
    {
      "bufferView": 6,
      "byteOffset": 9844,
      "componentType": 5126,
      "count": 873,
      "max": [
        21.666666030883789
      ],
      "min": [
        0
      ],
      "type": "SCALAR"
    },
    {
      "bufferView": 8,
      "byteOffset": 14544,
      "componentType": 5126,
      "count": 873,
      "max": [
        0.7071068286895752,
        0.7071068286895752,
        1,
        0.70799750089645386
      ],
      "min": [
        -9.415696666792428e-08,
        -0.089104756712913513,
        0,
        -9.4156959562496922e-08
      ],
      "type": "VEC4"
    },
    {
      "bufferView": 6,
      "byteOffset": 13336,
      "componentType": 5126,
      "count": 772,
      "max": [
        21.666666030883789
      ],
      "min": [
        0
      ],
      "type": "SCALAR"
    },
    {
      "bufferView": 7,
      "byteOffset": 18624,
      "componentType": 5126,
      "count": 772,
      "max": [
        4.1443676948547363,
        4.5283427238464355,
        5.8786020278930664
      ],
      "min": [
        -0.033716380596160889,
        -0.16149032115936279,
        -6.2331705093383789
      ],
      "type": "VEC3"
    },
    {
      "bufferView": 6,
      "byteOffset": 16424,
      "componentType": 5126,
      "count": 219,
      "max": [
        21.666666030883789
      ],
      "min": [
        0
      ],
      "type": "SCALAR"
    },
    {
      "bufferView": 8,
      "byteOffset": 28512,
      "componentType": 5126,
      "count": 219,
      "max": [
        1,
        0,
        0,
        0.70710670948028564
      ],
      "min": [
        0.7071068286895752,
        0,
        0,
        -0.091494858264923096
      ],
      "type": "VEC4"
    }
  ],
  "animations": [
    {
      "channels": [
        {
          "sampler": 0,
          "target": {
            "node": 10,
            "path": "translation"
          }
        },
        {
          "sampler": 1,
          "target": {
            "node": 10,
            "path": "rotation"
          }
        },
        {
          "sampler": 2,
          "target": {
            "node": 12,
            "path": "translation"
          }
        },
        {
          "sampler": 3,
          "target": {
            "node": 12,
            "path": "rotation"
          }
        },
        {
          "sampler": 4,
          "target": {
            "node": 14,
            "path": "translation"
          }
        },
        {
          "sampler": 5,
          "target": {
            "node": 14,
            "path": "rotation"
          }
        }
      ],
      "name": "Armature.003|Armature.003Action",
      "samplers": [
        {
          "input": 9,
          "interpolation": "LINEAR",
          "output": 10
        },
        {
          "input": 11,
          "interpolation": "LINEAR",
          "output": 12
        },
        {
          "input": 13,
          "interpolation": "LINEAR",
          "output": 14
        },
        {
          "input": 15,
          "interpolation": "LINEAR",
          "output": 16
        },
        {
          "input": 17,
          "interpolation": "LINEAR",
          "output": 18
        },
        {
          "input": 19,
          "interpolation": "LINEAR",
          "output": 20
        }
      ]
    }
  ],
  "asset": {
    "extras": {
      "author": "Blender3D (https://sketchfab.com/Blender3D)",
      "license": "CC-BY-4.0 (http://creativecommons.org/licenses/by/4.0/)",
      "source": "https://sketchfab.com/models/d8c3a8359cbb42238d16b0e29b840688",
      "title": "Simple Toilet Paper Holder"
    },
    "generator": "Sketchfab-3.31.2",
    "version": "2.0"
  },
  "bufferViews": [
    {
      "buffer": 0,
      "byteLength": 43552,
      "byteOffset": 0,
      "byteStride": 8,
      "name": "shortBufferViews",
      "target": 34962
    },
    {
      "buffer": 0,
      "byteLength": 59232,
      "byteOffset": 43552,
      "name": "floatBufferViews",
      "target": 34963
    },
    {
      "buffer": 0,
      "byteLength": 43552,
      "byteOffset": 102784,
      "byteStride": 8,
      "name": "floatBufferViews",
      "target": 34962
    },
    {
      "buffer": 0,
      "byteLength": 130656,
      "byteOffset": 146336,
      "byteStride": 12,
      "name": "floatBufferViews",
      "target": 34962
    },
    {
      "buffer": 0,
      "byteLength": 261312,
      "byteOffset": 276992,
      "byteStride": 16,
      "name": "floatBufferViews",
      "target": 34962
    },
    {
      "buffer": 0,
      "byteLength": 576,
      "byteOffset": 538304,
      "byteStride": 64,
      "name": "floatBufferViews"
    },
    {
      "buffer": 0,
      "byteLength": 17300,
      "byteOffset": 538880,
      "name": "floatBufferViews"
    },
    {
      "buffer": 0,
      "byteLength": 27888,
      "byteOffset": 556180,
      "byteStride": 12,
      "name": "floatBufferViews"
    },
    {
      "buffer": 0,
      "byteLength": 32016,
      "byteOffset": 584068,
      "byteStride": 16,
      "name": "floatBufferViews"
    }
  ],
  "buffers": [
    {
      "byteLength": 616084,
      "uri": "scene.bin"
    }
  ],
  "images": [
    {
      "uri": "textures/Scene_-_Root_normal.jpeg"
    },
    {
      "uri": "textures/Scene_-_Root_metallicRoughness.png"
    },
    {
      "uri": "textures/Scene_-_Root_baseColor.jpeg"
    }
  ],
  "materials": [
    {
      "doubleSided": true,
      "name": "Scene_-_Root",
      "normalTexture": {
        "index": 0,
        "scale": 1,
        "texCoord": 0
      },
      "pbrMetallicRoughness": {
        "baseColorFactor": [
          1,
          1,
          1,
          1
        ],
        "baseColorTexture": {
          "index": 2,
          "texCoord": 0
        },
        "metallicFactor": 0.65696970619999995,
        "metallicRoughnessTexture": {
          "index": 1,
          "texCoord": 0
        },
        "roughnessFactor": 1
      }
    }
  ],
  "meshes": [
    {
      "name": "Stand__0",
      "primitives": [
        {
          "attributes": {
            "COLOR_0": 3,
            "JOINTS_0": 7,
            "NORMAL": 1,
            "POSITION": 0,
            "TANGENT": 2,
            "TEXCOORD_0": 4,
            "WEIGHTS_0": 8
          },
          "indices": 5,
          "material": 0,
          "mode": 4
        }
      ]
    }
  ],
  "nodes": [
    {
      "children": [
        1
      ],
      "name": "RootNode (gltf orientation matrix)",
      "rotation": [
        -0.70710678118654746,
        -0,
        -0,
        0.70710678118654757
      ]
    },
    {
      "children": [
        2
      ],
      "name": "RootNode (model correction matrix)"
    },
    {
      "children": [
        3
      ],
      "matrix": [
        1,
        0,
        0,
        0,
        0,
        0,
        1,
        0,
        0,
        -1,
        0,
        0,
        0,
        0,
        0,
        1
      ],
      "name": "Stand.fbx"
    },
    {
      "children": [
        4
      ],
      "name": ""
    },
    {
      "children": [
        5,
        18
      ],
      "name": "RootNode"
    },
    {
      "children": [
        6
      ],
      "name": "Armature.003",
      "rotation": [
        -0.7071068286895752,
        0,
        0,
        0.70710670948028564
      ],
      "scale": [
        100,
        100,
        100
      ],
      "translation": [
        -43.17822265625,
        59.414054870605469,
        5.6285285949707031
      ]
    },
    {
      "children": [
        7,
        17,
        16
      ],
      "name": ""
    },
    {
      "children": [
        8,
        10,
        12,
        14
      ],
      "name": "_rootJoint"
    },
    {
      "children": [
        9
      ],
      "name": "Bone_00",
      "rotation": [
        0.7071068286895752,
        0,
        0,
        0.70710670948028564
      ],
      "translation": [
        -1.0051480531692505,
        0.1804078072309494,
        -0.93498843908309937
      ]
    },
    {
      "name": "Bone_end_04",
      "translation": [
        0,
        1,
        0
      ]
    },
    {
      "children": [
        11
      ],
      "name": "Bone.001_01",
      "rotation": [
        0.7071068286895752,
        0,
        0,
        0.70710670948028564
      ],
      "translation": [
        1.0051480531692505,
        -0.1804078072309494,
        5.204376220703125
      ]
    },
    {
      "name": "Bone.001_end_05",
      "translation": [
        0,
        1,
        0
      ]
    },
    {
      "children": [
        13
      ],
      "name": "Bone.002_02",
      "rotation": [
        0.7071068286895752,
        0,
        0,
        0.70710670948028564
      ],
      "translation": [
        0.43178215622901917,
        0.056285366415977478,
        -6.204376220703125
      ]
    },
    {
      "name": "Bone.002_end_06",
      "translation": [
        0,
        1,
        0
      ]
    },
    {
      "children": [
        15
      ],
      "name": "Bone.003_03",
      "rotation": [
        0.7071068286895752,
        0,
        0,
        0.70710670948028564
      ],
      "translation": [
        0.43178236484527588,
        0.056285262107849121,
        -3.0563671588897705
      ]
    },
    {
      "name": "Bone.003_end_07",
      "translation": [
        0,
        1,
        0
      ]
    },
    {
      "matrix": [
        100,
        0,
        0,
        0,
        0,
        6.1232339957367661e-15,
        -100,
        0,
        0,
        100,
        6.1232339957367661e-15,
        0,
        6.198883056640625e-06,
        0,
        -1.4901161193847656e-07,
        1
      ],
      "name": ""
    },
    {
      "mesh": 0,
      "name": "",
      "skin": 0
    },
    {
      "name": "Stand",
      "rotation": [
        -0.7071068286895752,
        0,
        0,
        0.70710670948028564
      ],
      "scale": [
        100,
        100,
        100
      ]
    }
  ],
  "samplers": [
    {
      "magFilter": 9729,
      "minFilter": 9987,
      "wrapS": 10497,
      "wrapT": 10497
    }
  ],
  "scene": 0,
  "scenes": [
    {
      "name": "OSG_Scene",
      "nodes": [
        0
      ]
    }
  ],
  "skins": [
    {
      "inverseBindMatrices": 6,
      "joints": [
        7,
        8,
        9,
        10,
        11,
        12,
        13,
        14,
        15
      ],
      "skeleton": 7
    }
  ],
  "textures": [
    {
      "sampler": 0,
      "source": 0
    },
    {
      "sampler": 0,
      "source": 1
    },
    {
      "sampler": 0,
      "source": 2
    }
  ]
}

